<svg width="13" height="13" viewBox="0 0 13 13" fill="none" xmlns="http://www.w3.org/2000/svg">
<path d="M7.47753 6.78375C7.33753 6.80375 7.20753 7.02375 7.04753 7.09375C6.63753 7.28375 6.39753 7.05375 6.10753 6.80375C6.04753 6.81375 5.79753 7.29375 5.79753 7.36375L7.37753 10.7437C7.43753 10.8137 7.72753 10.8737 7.83753 10.8837C9.80753 11.2037 11.3975 9.31375 10.7575 7.42375C10.7275 7.32375 10.4975 6.78375 10.3975 6.80375C10.1475 7.08375 9.83753 7.27375 9.45753 7.08375C9.30753 7.00375 9.16753 6.77375 8.99753 6.78375C8.85753 6.78375 8.79753 6.92375 8.69753 7.00375C8.47753 7.17375 8.22753 7.23375 7.97753 7.10375C7.80753 7.02375 7.67753 6.77375 7.47753 6.79375M9.01753 1.91375H7.51753V4.90375C7.51753 5.01375 7.08753 5.11375 6.97753 5.15375C6.43753 5.38375 5.87753 5.79375 5.53753 6.28375C5.50753 6.33375 5.41753 6.44375 5.40753 6.48375C5.38753 6.61375 5.55753 6.77375 5.56753 6.90375C5.79753 6.61375 5.85753 6.23375 6.32753 6.48375C6.53753 6.60375 6.61753 6.93375 6.93753 6.72375C7.18753 6.55375 7.22753 6.35375 7.62753 6.42375C7.98753 6.48375 8.09753 6.96375 8.43753 6.72375C8.67753 6.56375 8.71753 6.36375 9.10753 6.41375C9.42753 6.45375 9.55753 6.79375 9.76753 6.79375C9.99753 6.79375 10.1575 6.35375 10.5275 6.41375C10.7075 6.44375 10.9375 6.91375 11.0175 7.07375C11.6275 8.47375 11.0875 10.1038 9.77753 10.8737C9.09753 11.2737 8.27753 11.3737 7.51753 11.1937L7.43753 11.5737C9.09753 11.9637 10.8075 11.1038 11.4275 9.51375C12.0975 7.77375 11.2675 5.89375 9.57753 5.16375C9.46753 5.11375 9.02753 5.01375 9.02753 4.90375V1.91375H9.01753ZM6.90753 1.16375C6.67753 1.24375 6.71753 1.51375 6.95753 1.54375C7.76753 1.63375 8.74753 1.47375 9.57753 1.54375C9.83753 1.51375 9.84753 1.19375 9.57753 1.16375H6.90753ZM4.50753 1.15375H3.00753V4.93375C2.96753 5.66375 2.67753 6.20375 2.38753 6.84375C1.74753 8.24375 1.04753 9.62375 0.40753 11.0337C0.31753 11.3137 0.47753 11.6237 0.78753 11.6537H6.76753C7.06753 11.5937 7.22753 11.2837 7.11753 11.0037C6.40753 9.36375 5.51753 7.79375 4.82753 6.14375C4.65753 5.74375 4.55753 5.35375 4.52753 4.92375V1.15375H4.50753ZM2.37753 0.42375C2.16753 0.54375 2.24753 0.79375 2.47753 0.80375C3.28753 0.73375 4.24753 0.89375 5.04753 0.80375C5.35753 0.77375 5.32753 0.45375 5.10753 0.42375H2.38753H2.37753ZM4.88753 1.15375V5.09375C4.91753 5.32375 4.96753 5.55375 5.04753 5.77375C5.06753 5.84375 5.14753 6.08375 5.22753 6.08375C5.67753 5.42375 6.37753 4.96375 7.12753 4.70375V1.91375C6.33753 2.02375 6.06753 0.98375 6.86753 0.79375C7.75753 0.85375 8.74753 0.71375 9.62753 0.79375C9.83753 0.81375 10.0275 0.94375 10.0975 1.14375C10.2575 1.63375 9.85753 1.96375 9.39753 1.91375V4.70375C11.4775 5.38375 12.5675 7.66375 11.7275 9.71375C11.0875 11.2638 9.47753 12.2037 7.79753 12.0037C7.62753 11.9837 7.31753 11.8837 7.18753 11.8737C7.08753 11.8737 6.84753 12.0637 6.69753 12.0337H0.79753C0.24753 11.9837 -0.12247 11.4837 0.0375302 10.9437L2.39753 5.90375C2.49753 5.63375 2.57753 5.36375 2.60753 5.08375V1.15375C1.79753 1.32375 1.57753 0.13375 2.37753 0.03375C3.22753 -0.06625 4.27753 0.09375 5.14753 0.03375C5.91753 0.24375 5.65753 1.26375 4.86753 1.14375" fill="#133550"/>
<path d="M1.3177 10.9238H6.2277L5.3477 9.07378C5.2777 9.02378 5.0177 9.29378 4.9277 9.34378C4.7077 9.45378 4.5077 9.44378 4.2777 9.34378C4.0377 9.23378 3.9277 8.94378 3.6177 9.06378C3.5277 9.09378 3.4477 9.20378 3.3777 9.25378C3.1177 9.42378 2.8877 9.47378 2.5977 9.33378C2.5077 9.29378 2.2377 9.02378 2.1677 9.06378L1.3177 10.9138V10.9238ZM2.0477 8.66378C2.1977 8.63378 2.4077 8.74378 2.5277 8.82378C2.6077 8.87378 2.6777 8.98378 2.7677 9.01378C3.0977 9.13378 3.1877 8.84378 3.4277 8.74378C3.7277 8.61378 3.9677 8.65378 4.2277 8.83378C4.2877 8.88378 4.3277 8.94378 4.3977 8.98378C4.8277 9.22378 5.0677 8.52378 5.5377 8.66378L6.6577 10.9738C6.6977 11.0738 6.6977 11.1938 6.5977 11.2538H0.897703C0.807703 11.2038 0.797703 11.1138 0.827703 11.0238L1.9477 8.70378C1.9477 8.70378 2.0077 8.66378 2.0377 8.65378" fill="#133550"/>
</svg>
