<svg width="14" height="14" viewBox="0 0 14 14" fill="none" xmlns="http://www.w3.org/2000/svg">
<path d="M10.55 11.2377H9.45V13.0277H10.55V11.2377ZM4.03 11.2377H2.93V13.0277H4.03V11.2377ZM13.03 4.12772L9.99 1.65772L6.98 4.14772V13.0277H8.98V11.1477C8.98 11.0277 9.16 10.8577 9.28 10.8077C9.48 10.7277 10.25 10.7377 10.5 10.7577C10.66 10.7677 10.81 10.8077 10.92 10.9377C10.94 10.9677 11.01 11.0777 11.01 11.1077V13.0177H13.04V4.11772L13.03 4.12772ZM6.5 13.0277V4.14772L3.49 1.65772L0.45 4.12772V13.0277H2.48V11.1177C2.48 11.1177 2.55 10.9777 2.57 10.9477C2.67 10.8177 2.83 10.7777 2.99 10.7677C3.24 10.7477 4 10.7377 4.21 10.8177C4.32 10.8577 4.51 11.0377 4.51 11.1577V13.0377H6.51L6.5 13.0277ZM13.03 3.54772V2.95772L9.99 0.447722L6.98 2.95772V3.54772L9.85 1.16772C9.92 1.11772 10.03 1.10772 10.11 1.13772L13.03 3.54772ZM6.5 3.51772V2.94772L3.49 0.437722L0.45 2.94772V3.53772L3.37 1.12772C3.45 1.09772 3.56 1.09772 3.63 1.15772L6.5 3.50772V3.51772ZM13.47 2.83772V13.1577C13.39 13.3077 13.3 13.3877 13.15 13.4777H0.32C0.17 13.3877 0.03 13.2877 0 13.0977V2.86772C0.03 2.73772 0.12 2.65772 0.21 2.56772C1.11 1.71772 2.23 0.987723 3.14 0.137723C3.31 -0.00227705 3.54 -0.0522775 3.73 0.0777225L6.75 2.55772L9.72 0.097723C9.96 -0.052277 10.11 -0.022277 10.34 0.137723C11.34 0.847723 12.26 1.83772 13.26 2.55772C13.36 2.64772 13.43 2.72772 13.48 2.84772" fill="#133550"/>
<path d="M2.91992 9.86773V9.01773L2.87992 8.97773H1.57992V9.87773H2.91992V9.86773ZM1.24992 10.1977C1.24992 10.1977 1.16992 10.0777 1.15992 10.0377C1.10992 9.89773 1.11992 9.10773 1.13992 8.92773C1.15992 8.69773 1.31992 8.54773 1.54992 8.51773C1.86992 8.47773 2.64992 8.47773 2.96992 8.51773C3.17992 8.53773 3.34992 8.71773 3.37992 8.92773C3.40992 9.15773 3.39992 9.69773 3.37992 9.92773C3.34992 10.1777 3.14992 10.3077 2.91992 10.3377C2.58992 10.3677 1.92992 10.3677 1.59992 10.3377C1.47992 10.3277 1.33992 10.2877 1.25992 10.1977" fill="#133550"/>
<path d="M2.91992 4.49771H1.57992V5.39771H2.91992V4.49771ZM1.56992 4.02771C1.87992 3.98771 2.55992 3.98771 2.87992 4.02771C3.10992 4.04771 3.32992 4.16771 3.35992 4.40771C3.38992 4.62771 3.37992 5.17771 3.35992 5.40771C3.33992 5.62771 3.17992 5.81771 2.94992 5.83771C2.61992 5.86771 1.88992 5.86771 1.55992 5.83771C1.37992 5.81771 1.15992 5.69771 1.12992 5.50771C1.09992 5.33771 1.09992 4.54771 1.12992 4.37771C1.15992 4.16771 1.37992 4.04771 1.56992 4.02771Z" fill="#133550"/>
<path d="M2.92018 6.73772H1.58018V7.63772H2.92018V6.73772ZM1.47018 6.28772C1.73018 6.24772 2.72018 6.24772 2.99018 6.28772C3.15018 6.30772 3.31018 6.43772 3.35018 6.58772C3.39018 6.72772 3.39018 7.56772 3.37018 7.72772C3.34018 7.92772 3.16018 8.06772 2.97018 8.08772C2.64018 8.11772 1.82018 8.12772 1.49018 8.08772C1.34018 8.06772 1.16018 7.90772 1.14018 7.75772C1.11018 7.57772 1.11018 6.80772 1.14018 6.62772C1.16018 6.48772 1.33018 6.32772 1.47018 6.30772" fill="#133550"/>
<path d="M5.39995 9.86771V9.00771L5.35995 8.96771H4.30995L4.26995 9.00771V9.86771H5.39995ZM4.19995 8.52771C4.44995 8.48771 5.17995 8.48771 5.42995 8.52771C5.63995 8.55771 5.81995 8.71771 5.83995 8.93771C5.85995 9.15771 5.86995 9.72771 5.83995 9.93771C5.81995 10.0977 5.69995 10.2477 5.54995 10.3077C5.35995 10.3777 4.52995 10.3677 4.29995 10.3477C4.05995 10.3277 3.83995 10.1977 3.80995 9.93771C3.78995 9.71771 3.77995 9.12771 3.80995 8.91771C3.83995 8.72771 4.00995 8.56771 4.19995 8.53771" fill="#133550"/>
<path d="M5.38995 4.49772H4.25995V5.39772H5.34995L5.38995 5.35772V4.49772ZM4.25995 4.02772C4.49995 3.99772 5.37995 3.98772 5.56995 4.06772C5.72995 4.12772 5.81995 4.29772 5.83995 4.45772C5.86995 4.67772 5.85995 5.20772 5.83995 5.42772C5.81995 5.63772 5.63995 5.80772 5.42995 5.83772C5.15995 5.86772 4.48995 5.86772 4.21995 5.83772C4.00995 5.81772 3.83995 5.63772 3.80995 5.42772C3.78995 5.22772 3.77995 4.56772 3.80995 4.37772C3.84995 4.16772 4.04995 4.04772 4.24995 4.02772" fill="#133550"/>
<path d="M5.38992 6.73773H4.25992V7.63773H5.38992V6.73773ZM4.14992 6.28774C4.33992 6.24774 5.24992 6.25774 5.45992 6.28774C5.65992 6.31774 5.81992 6.49773 5.83992 6.69773C5.85992 6.92773 5.85992 7.41773 5.83992 7.64773C5.81992 7.86773 5.67992 8.05773 5.45992 8.07773C5.18992 8.10773 4.49992 8.10773 4.21992 8.07773C4.00992 8.05773 3.83992 7.90773 3.80992 7.69773C3.78992 7.48773 3.78992 6.87773 3.80992 6.66773C3.82992 6.49773 3.97992 6.32774 4.13992 6.28774" fill="#133550"/>
<path d="M9.41992 8.96771H8.11992L8.07992 9.00771V9.86771H9.41992V8.97771V8.96771ZM8.01992 8.52771C8.30992 8.48771 9.16992 8.48771 9.45992 8.52771C9.62992 8.54771 9.78992 8.64771 9.84992 8.81771C9.91992 8.99771 9.90992 9.88771 9.83992 10.0677C9.75992 10.2677 9.57992 10.3277 9.37992 10.3477C9.03992 10.3777 8.41992 10.3777 8.08992 10.3477C7.87992 10.3277 7.66992 10.1877 7.62992 9.96771C7.59992 9.78771 7.59992 9.10771 7.62992 8.91771C7.65992 8.72771 7.82992 8.56771 8.01992 8.53771" fill="#133550"/>
<path d="M9.41977 4.49772H8.07977V5.34772L8.11977 5.38772H9.41977V4.49772ZM9.74977 4.16772C9.82977 4.24772 9.87977 4.37772 9.88977 4.48772C9.90977 4.69772 9.91977 5.40772 9.83977 5.58772C9.77977 5.71772 9.62977 5.82772 9.48977 5.83772C9.17977 5.87772 8.34977 5.86772 8.03977 5.83772C7.82977 5.81772 7.64977 5.63772 7.62977 5.42772C7.60977 5.20772 7.59977 4.63772 7.62977 4.42772C7.64977 4.27772 7.76977 4.10772 7.91977 4.05772C8.12977 3.98772 9.11977 3.99772 9.37977 4.01772C9.50977 4.02772 9.65977 4.06772 9.74977 4.15772" fill="#133550"/>
<path d="M9.42018 6.73773H8.08018V7.63773H9.42018V6.73773ZM7.97018 6.28773C8.45018 6.31773 9.02018 6.22773 9.49018 6.28773C9.74018 6.31773 9.88018 6.51773 9.90018 6.74773C9.92018 6.95773 9.92018 7.60773 9.86018 7.78773C9.81018 7.92773 9.67018 8.05773 9.52017 8.07773C9.21018 8.11773 8.33017 8.10773 8.02017 8.07773C7.82017 8.05773 7.67018 7.88773 7.64018 7.69773C7.61018 7.49773 7.61018 6.87773 7.64018 6.67773C7.67018 6.49773 7.80018 6.35773 7.97018 6.29773" fill="#133550"/>
<path d="M11.8998 8.96772H10.7998V9.86772H11.8998V8.96772ZM12.2298 10.1977C12.1498 10.2777 11.9998 10.3277 11.8798 10.3377C11.6098 10.3577 11.0498 10.3677 10.7698 10.3377C10.4598 10.3077 10.3298 10.1177 10.3098 9.82772C10.2898 9.61772 10.2898 8.99772 10.3498 8.81772C10.4198 8.63772 10.5798 8.54772 10.7698 8.52772C11.0498 8.50772 11.6498 8.49772 11.9298 8.52772C12.1798 8.55772 12.3198 8.71772 12.3398 8.95772C12.3498 9.14772 12.3598 9.89772 12.3198 10.0477C12.3098 10.0777 12.2498 10.1777 12.2298 10.2077" fill="#133550"/>
<path d="M11.9 4.49773H10.8V5.39773H11.9V4.49773ZM10.46 4.16773C10.55 4.07773 10.7 4.03773 10.83 4.02773C11.07 4.00773 11.86 3.99773 12.06 4.06773C12.2 4.11773 12.33 4.25773 12.35 4.40773C12.38 4.62773 12.37 5.23773 12.35 5.45773C12.32 5.68773 12.14 5.81773 11.92 5.83773C11.65 5.85773 11 5.86773 10.73 5.83773C10.59 5.81773 10.44 5.70773 10.38 5.58773C10.3 5.41773 10.3 4.69773 10.33 4.48773C10.34 4.37773 10.39 4.24773 10.47 4.16773" fill="#133550"/>
<path d="M11.8901 6.73773H10.7901V7.63773H11.8901V6.73773ZM10.6801 6.28774C10.9101 6.24774 11.7201 6.25774 11.9601 6.28774C12.1401 6.30774 12.3201 6.45773 12.3401 6.63773C12.3701 6.85773 12.3701 7.49773 12.3401 7.71773C12.3201 7.87773 12.1501 8.04773 11.9901 8.06773C11.7301 8.09773 10.9601 8.09773 10.7001 8.06773C10.5501 8.04773 10.4101 7.91773 10.3601 7.77773C10.2901 7.59773 10.2901 6.72773 10.3601 6.54773C10.4101 6.41773 10.5401 6.30773 10.6701 6.27773" fill="#133550"/>
</svg>
